<?xml version="1.0" standalone="no"?>
<!DOCTYPE svg PUBLIC "-//W3C//DTD SVG 20010904//EN"
 "http://www.w3.org/TR/2001/REC-SVG-20010904/DTD/svg10.dtd">
<svg version="1.0" xmlns="http://www.w3.org/2000/svg"
 width="941.000000pt" height="941.000000pt" viewBox="0 0 941.000000 941.000000"
 preserveAspectRatio="xMidYMid meet">
<metadata>
Created by potrace 1.11, written by Peter Selinger 2001-2013
</metadata>
<g transform="translate(0.000000,941.000000) scale(0.100000,-0.100000)"
fill="#000000" stroke="none">
<path d="M4770 8756 c-3 -2 -34 -7 -70 -10 -254 -24 -600 -142 -836 -287 -229
-139 -407 -339 -498 -556 -77 -184 -105 -351 -100 -588 2 -82 5 -161 7 -175 3
-14 8 -47 12 -75 43 -320 199 -656 456 -985 179 -229 374 -543 419 -675 26
-77 22 -208 -9 -285 -72 -177 -277 -383 -486 -488 -154 -77 -356 -124 -545
-126 -165 -1 -221 6 -440 58 -122 30 -327 104 -450 164 -76 37 -239 133 -262
155 -7 7 -31 25 -52 41 -100 75 -214 204 -313 355 -136 206 -345 381 -533 445
-137 46 -306 58 -428 30 -296 -68 -515 -297 -607 -634 -48 -175 -42 -380 17
-554 127 -376 507 -658 863 -641 152 8 237 49 290 139 35 60 39 76 41 188 5
213 -72 431 -199 558 -26 27 -65 56 -85 66 -83 39 -200 10 -275 -69 -74 -77
-93 -145 -61 -213 30 -63 73 -64 138 -2 68 64 129 56 186 -27 73 -106 79 -166
22 -223 -58 -58 -105 -77 -187 -76 -88 0 -154 33 -226 112 -61 67 -85 113
-102 194 -16 75 -13 155 8 238 17 70 112 254 158 306 54 62 124 96 191 93 124
-5 178 -67 386 -439 47 -85 117 -213 155 -285 143 -272 164 -304 275 -417 81
-82 186 -161 276 -206 51 -26 211 -93 233 -97 9 -2 49 -12 89 -24 41 -11 99
-23 130 -27 32 -3 59 -8 62 -9 12 -7 180 -18 275 -18 178 0 325 15 525 54 58
11 176 38 263 60 87 23 160 39 162 37 2 -1 -23 -39 -55 -82 -94 -129 -158
-274 -190 -431 -14 -66 -17 -242 -7 -320 29 -219 135 -422 289 -556 156 -136
200 -191 246 -304 34 -85 39 -217 11 -299 -96 -280 -429 -401 -799 -290 -47
14 -114 43 -150 64 -265 156 -367 514 -223 782 43 80 90 123 144 133 33 6 39
4 58 -24 34 -47 38 -124 12 -204 -11 -37 -21 -73 -21 -81 0 -21 48 -32 117
-27 30 2 81 56 106 110 30 68 33 205 6 274 -44 112 -187 274 -282 320 -44 21
-64 25 -132 23 -106 -2 -167 -34 -246 -129 -132 -157 -189 -290 -226 -522 -10
-60 -9 -276 1 -360 42 -352 218 -591 528 -715 89 -35 259 -78 347 -87 125 -13
436 -6 526 11 11 2 40 7 65 11 58 9 170 40 240 67 293 115 515 379 648 773 38
111 43 137 48 250 8 203 -68 346 -246 460 -137 88 -258 221 -295 325 -15 44
-21 142 -10 193 19 95 120 289 229 442 107 150 323 379 485 515 29 25 59 50
65 55 36 34 162 129 228 173 198 133 468 232 638 234 78 2 118 -18 148 -71 35
-62 20 -193 -38 -326 -5 -11 -23 -51 -40 -90 -155 -343 -213 -482 -230 -550
-61 -239 -7 -481 165 -740 169 -254 475 -451 790 -510 39 -7 161 -7 200 0 230
42 447 185 750 494 77 79 178 181 225 226 76 74 106 101 173 155 11 8 24 20
31 26 47 44 366 232 454 267 23 9 69 17 101 17 139 0 303 -145 378 -335 24
-61 28 -83 27 -170 0 -85 -5 -110 -29 -170 -65 -161 -168 -261 -338 -329 -178
-71 -285 -14 -338 179 -19 71 -74 174 -101 191 -18 11 -112 -98 -127 -146 -34
-115 -16 -224 55 -327 137 -199 375 -233 674 -96 78 35 179 110 255 188 88 90
124 138 177 235 31 55 95 219 96 243 0 4 4 26 8 50 60 347 -67 688 -299 802
-95 46 -189 65 -302 60 -49 -2 -101 -6 -115 -9 -14 -3 -56 -10 -95 -16 -219
-34 -529 -135 -880 -285 -443 -190 -517 -215 -634 -209 -87 4 -154 29 -193 70
-90 95 -75 191 60 381 186 263 253 379 316 547 28 73 65 208 71 261 15 115 18
151 18 236 -1 230 -52 436 -161 658 -76 153 -177 259 -313 327 -123 62 -256
79 -469 60 -134 -12 -195 -18 -217 -21 -13 -2 -23 0 -23 4 0 11 46 80 75 111
30 34 114 161 154 235 95 173 171 418 198 635 16 128 9 450 -12 550 -3 14 -7
39 -10 55 -11 82 -71 296 -101 362 -8 17 -14 34 -14 37 0 15 -78 171 -131 261
-155 265 -351 434 -599 514 -77 25 -257 67 -320 75 -25 3 -56 9 -70 12 -31 7
-424 17 -430 10z m862 -1795 c128 -44 219 -138 263 -271 66 -199 -27 -466
-217 -619 -177 -143 -376 -162 -603 -57 -74 34 -74 34 -92 14 -47 -52 -180
-134 -267 -163 -49 -17 -168 -34 -201 -29 -11 1 -38 5 -60 8 -237 32 -460 285
-482 546 -19 235 197 466 432 462 129 -2 205 -34 427 -176 l92 -59 20 25 c12
14 47 57 78 96 165 205 408 294 610 223z"/>
<path d="M5250 6474 l0 -94 -76 0 -76 0 5 -42 c21 -166 73 -223 211 -232 51
-3 130 25 166 59 109 105 90 300 -36 360 -20 9 -72 23 -115 30 l-79 12 0 -93z"/>
<path d="M4567 6402 c-14 -3 -17 -9 -12 -25 35 -110 2 -157 -109 -157 l-44 0
9 -42 c31 -142 105 -221 209 -221 61 0 108 17 151 56 68 61 97 149 79 234 -13
56 -48 98 -106 124 -44 20 -145 37 -177 31z"/>
<path d="M2285 7445 c-196 -35 -347 -110 -474 -235 -122 -120 -200 -277 -245
-495 -17 -79 -20 -294 -5 -370 52 -275 89 -392 181 -585 199 -414 566 -751
1023 -937 106 -44 285 -102 338 -110 18 -3 51 -8 75 -13 48 -9 254 -6 270 4 5
3 26 8 47 12 54 8 178 67 249 118 107 76 244 243 275 335 16 48 14 117 -4 151
-9 17 -17 30 -18 30 -1 0 -34 9 -72 20 -39 11 -83 23 -100 26 -16 3 -34 7 -40
8 -5 1 -26 6 -45 10 -406 90 -949 358 -1252 619 -251 216 -313 336 -312 602 1
117 3 137 29 205 76 204 210 286 386 234 75 -22 143 -60 169 -96 28 -37 33
-113 13 -188 -7 -30 -13 -70 -11 -89 4 -41 22 -45 105 -26 99 23 153 81 179
191 46 197 -56 401 -251 501 -152 78 -342 107 -510 78z"/>
<path d="M7920 6994 c-307 -55 -521 -229 -603 -490 -33 -105 -38 -131 -42
-254 -5 -169 32 -279 132 -390 91 -101 232 -178 398 -217 50 -11 195 -14 247
-4 125 23 223 96 247 184 22 75 3 192 -42 258 -24 37 -100 81 -131 77 -20 -3
-21 -5 -36 -106 -20 -125 -71 -183 -171 -190 -49 -4 -66 0 -124 29 -111 54
-175 151 -175 265 0 55 40 171 83 242 137 229 451 290 753 146 263 -125 404
-307 410 -531 9 -374 -236 -614 -706 -689 -31 -5 -191 -5 -247 0 -66 6 -240
43 -538 115 -66 15 -121 27 -123 26 -1 -1 13 -67 32 -146 19 -79 40 -180 46
-224 6 -44 13 -93 15 -110 7 -46 7 -253 -1 -315 -3 -30 -12 -89 -20 -130 -16
-87 -17 -93 -6 -86 4 2 57 12 117 21 61 9 121 18 135 20 14 2 46 6 72 9 26 3
58 8 70 10 13 3 39 8 58 10 63 9 324 47 353 51 15 3 39 7 55 9 30 5 114 19
122 21 5 1 80 14 120 21 14 2 34 6 45 8 11 2 59 11 106 20 370 69 621 288 753
656 148 411 90 838 -167 1222 -123 184 -257 296 -455 379 -73 30 -222 71 -307
84 -88 13 -400 13 -475 -1z"/>
<path d="M5651 4439 c-238 -44 -554 -233 -815 -487 -124 -121 -288 -323 -274
-338 3 -3 50 -21 104 -40 222 -79 307 -154 331 -290 17 -92 1 -178 -62 -333
-37 -92 -50 -137 -70 -238 -35 -185 6 -412 106 -590 51 -91 182 -228 274 -288
115 -75 284 -136 418 -150 32 -4 66 -8 75 -10 9 -1 55 -6 102 -10 314 -25 444
-147 389 -366 -25 -97 -71 -178 -194 -340 -89 -117 -195 -271 -195 -283 0 -2
21 -7 46 -11 42 -6 55 -2 128 34 205 101 355 233 474 416 64 99 129 295 139
415 11 147 -46 275 -156 349 -86 58 -115 67 -361 112 -90 17 -255 71 -331 109
-171 87 -304 212 -380 359 -63 123 -47 230 55 361 90 115 103 178 62 307 -34
106 -41 148 -41 263 0 185 12 227 157 550 61 135 127 288 148 340 20 52 41
104 45 115 21 52 20 53 -58 52 -39 0 -92 -4 -116 -8z"/>
</g>
</svg>
