<?xml version="1.0" standalone="no"?>
<!DOCTYPE svg PUBLIC "-//W3C//DTD SVG 20010904//EN"
 "http://www.w3.org/TR/2001/REC-SVG-20010904/DTD/svg10.dtd">
<svg version="1.0" xmlns="http://www.w3.org/2000/svg"
 width="521.000000pt" height="521.000000pt" viewBox="0 0 521.000000 521.000000"
 preserveAspectRatio="xMidYMid meet">
<metadata>
Created by potrace 1.11, written by Peter Selinger 2001-2013
</metadata>
<g transform="translate(0.000000,521.000000) scale(0.100000,-0.100000)"
fill="#000000" stroke="none">
<path d="M2565 5189 c-4 -5 -12 -6 -18 -3 -7 4 -9 3 -4 -1 4 -5 1 -15 -7 -24
-22 -26 -37 -79 -23 -85 7 -2 7 -5 1 -5 -6 -1 -8 -21 -4 -56 3 -30 2 -55 -2
-55 -5 0 -4 -9 2 -20 8 -15 8 -20 -2 -20 -9 0 -9 -3 2 -10 10 -6 11 -10 3 -10
-9 0 -10 -7 -3 -26 6 -14 8 -29 5 -34 -3 -4 8 -20 25 -33 40 -35 95 -30 128
10 12 15 21 36 18 46 -2 9 -1 17 2 17 11 0 8 94 -3 102 -6 5 -5 8 4 8 11 0 11
3 1 15 -9 11 -9 15 -1 15 9 0 9 5 1 20 -8 14 -8 20 0 20 8 0 8 6 0 20 -8 15
-8 20 1 20 8 0 8 4 -1 15 -6 8 -9 18 -6 23 3 4 -4 15 -16 23 -11 8 -26 19 -32
24 -15 13 -64 16 -71 4z"/>
<path d="M1668 4940 c-16 -9 -25 -20 -22 -23 4 -4 1 -14 -7 -23 -8 -10 -13
-19 -12 -21 12 -17 30 -73 25 -77 -3 -3 0 -6 6 -6 12 0 58 -79 54 -92 -1 -5 3
-8 8 -8 6 0 10 -7 10 -16 0 -8 5 -12 10 -9 9 5 15 -15 11 -37 0 -5 6 -8 15 -8
8 0 13 -4 10 -9 -9 -14 49 -33 85 -27 18 3 40 14 49 26 21 28 24 84 6 103 -8
8 -12 17 -9 21 4 3 1 6 -6 6 -7 0 -10 4 -6 9 3 5 1 12 -5 16 -6 4 -7 11 -4 17
4 7 2 8 -4 4 -11 -6 -16 6 -13 27 0 4 -3 7 -7 7 -5 0 -22 25 -38 56 -16 31
-38 61 -49 67 -31 17 -77 15 -107 -3z"/>
<path d="M3448 4949 c-10 -5 -18 -7 -18 -3 0 4 -9 -4 -20 -17 -11 -13 -24 -29
-29 -35 -5 -7 -7 -15 -4 -18 4 -3 1 -6 -6 -6 -7 0 -10 -4 -6 -9 3 -5 -2 -16
-10 -24 -8 -9 -15 -19 -15 -22 0 -4 -9 -20 -21 -36 -11 -16 -17 -29 -13 -29 4
0 0 -6 -9 -13 -20 -14 -36 -107 -18 -107 6 0 11 -5 11 -11 0 -20 33 -38 68
-39 37 0 79 35 107 90 9 19 24 43 33 53 8 9 12 17 7 17 -4 0 5 16 19 35 15 19
24 40 20 47 -4 7 -3 8 4 4 7 -4 13 -2 13 3 5 40 3 57 -6 63 -6 5 -6 8 2 8 7 0
2 11 -10 24 -26 27 -75 40 -99 25z"/>
<path d="M2427 4529 c-13 -7 -76 -20 -114 -22 -13 -1 -23 -8 -23 -16 0 -10 -3
-11 -14 -2 -10 9 -16 8 -25 -3 -7 -8 -18 -13 -26 -10 -7 3 -16 0 -20 -5 -3 -6
-11 -9 -16 -6 -5 4 -9 1 -9 -5 0 -6 -4 -9 -9 -5 -5 3 -13 0 -16 -6 -4 -5 -13
-8 -21 -5 -8 3 -14 1 -14 -4 0 -6 -5 -10 -10 -10 -6 0 -29 -12 -51 -26 -23
-14 -38 -21 -35 -15 4 7 1 8 -8 5 -9 -3 -14 -9 -11 -14 4 -6 -28 -26 -48 -28
-4 -1 -19 -14 -32 -28 -14 -15 -25 -24 -25 -20 0 8 -15 -4 -80 -65 -27 -25
-52 -44 -55 -41 -3 3 -5 -2 -5 -11 0 -9 -7 -17 -15 -17 -8 0 -15 -5 -15 -10 0
-6 -18 -29 -39 -51 -22 -21 -43 -48 -46 -59 -4 -11 -11 -20 -16 -20 -5 0 -9
-6 -9 -14 0 -7 -7 -19 -15 -26 -8 -7 -12 -16 -9 -21 3 -5 1 -9 -5 -9 -6 0 -13
-11 -17 -25 -3 -14 -10 -25 -15 -25 -5 0 -9 -6 -9 -14 0 -8 -6 -21 -13 -28
-15 -14 -15 -15 -23 -58 -4 -16 -9 -28 -13 -26 -4 3 -8 -3 -9 -12 -3 -30 -8
-47 -18 -67 -6 -11 -10 -27 -9 -35 0 -8 -2 -17 -6 -20 -4 -3 -8 -21 -10 -40
-2 -19 -5 -39 -8 -45 -15 -28 -24 -285 -10 -285 8 0 8 -4 0 -14 -9 -11 -9 -15
1 -19 11 -4 11 -6 0 -6 -9 -1 -10 -7 -4 -18 4 -10 7 -28 6 -40 0 -13 3 -23 7
-23 5 0 9 -10 9 -22 0 -39 3 -58 10 -58 4 0 6 -13 5 -30 -1 -16 2 -27 6 -24 4
2 10 0 14 -6 3 -5 2 -10 -4 -10 -5 0 -4 -12 5 -27 7 -16 14 -34 14 -40 0 -7 6
-13 13 -13 8 0 7 -4 -3 -10 -13 -8 -8 -14 11 -12 3 1 6 -5 6 -12 0 -22 25 -76
35 -76 5 0 6 -4 3 -10 -3 -5 -1 -10 5 -10 7 0 10 -6 7 -12 -2 -7 6 -23 19 -34
12 -12 20 -25 16 -29 -4 -4 2 -13 12 -21 11 -8 17 -14 13 -14 -8 0 9 -21 65
-84 21 -22 38 -46 38 -51 0 -6 14 -23 30 -38 17 -16 28 -33 24 -38 -3 -5 0 -9
5 -9 6 0 11 -5 11 -11 0 -6 7 -17 15 -26 8 -8 13 -19 10 -24 -4 -5 2 -9 11 -9
10 0 15 -3 11 -6 -3 -3 3 -23 15 -45 24 -47 28 -70 16 -86 -5 -7 -7 -17 -3
-23 3 -5 2 -10 -3 -10 -11 0 -12 -159 0 -166 4 -3 8 -12 8 -20 0 -8 8 -33 19
-57 10 -23 24 -55 31 -72 8 -16 14 -32 15 -35 0 -3 6 -15 13 -26 6 -12 8 -24
5 -28 -3 -3 -1 -6 5 -6 7 0 12 -6 12 -14 0 -7 7 -26 14 -42 8 -15 13 -31 10
-36 -3 -4 -1 -8 3 -8 5 0 15 -17 22 -38 13 -37 63 -152 81 -184 6 -10 10 -26
10 -37 0 -11 5 -21 11 -23 7 -2 11 -51 10 -143 0 -77 4 -149 9 -160 4 -11 16
-38 26 -60 10 -22 17 -43 16 -47 -1 -5 3 -8 10 -8 6 0 8 -3 5 -6 -3 -4 -1 -16
5 -28 7 -11 13 -23 14 -26 0 -3 11 -26 23 -52 12 -26 22 -51 22 -55 0 -5 8
-16 16 -25 9 -10 13 -18 8 -18 -4 0 -2 -6 4 -13 6 -8 8 -17 4 -20 -3 -4 2 -9
11 -13 9 -3 13 -10 11 -15 -3 -5 2 -21 12 -36 10 -15 17 -28 16 -30 -4 -8 11
-43 19 -43 6 0 8 -6 5 -14 -3 -8 1 -20 9 -26 8 -7 14 -19 14 -27 0 -24 31 -83
41 -77 5 3 9 0 9 -5 0 -6 3 -10 8 -10 29 5 36 -10 19 -38 -4 -6 -3 -14 3 -18
7 -4 6 -13 -1 -27 -8 -15 -8 -19 0 -13 8 4 10 -2 6 -22 -4 -15 -8 -35 -9 -43
-6 -30 -18 -50 -32 -50 -8 0 -14 -5 -14 -11 0 -5 -4 -7 -10 -4 -5 3 -10 2 -10
-2 0 -5 -275 -9 -612 -9 -464 0 -613 -3 -616 -12 -2 -7 -10 -12 -17 -12 -13 0
-51 -50 -38 -50 5 0 3 -4 -3 -8 -8 -5 -8 -19 0 -52 6 -25 14 -43 18 -40 4 3
13 -3 20 -13 8 -10 22 -20 33 -22 11 -2 20 -4 20 -5 0 -7 1178 -4 1182 3 3 4
11 3 19 -4 11 -9 15 -8 20 4 3 9 14 14 25 12 10 -2 19 1 19 7 0 5 7 7 15 4 9
-3 18 1 21 9 4 8 9 13 14 10 4 -2 16 5 28 15 12 11 26 20 32 20 5 0 10 7 10
16 0 8 5 12 10 9 6 -3 10 -1 10 4 0 6 9 20 20 31 11 11 18 20 15 20 -3 0 2 15
12 33 10 17 18 43 18 57 1 14 4 30 6 35 3 6 5 44 5 85 -1 76 9 106 30 89 7 -6
16 -4 24 6 7 8 10 15 6 15 -3 0 3 16 15 36 11 20 18 39 15 42 -3 2 3 17 14 32
11 16 20 30 20 33 0 2 8 22 17 43 9 22 17 41 18 44 0 3 9 19 18 37 9 18 17 39
17 47 0 8 4 16 10 18 5 2 11 13 13 26 2 13 10 28 18 33 8 5 11 9 6 9 -4 0 -1
13 8 30 9 16 12 30 8 30 -5 0 -3 4 3 8 12 7 47 77 49 97 1 6 8 24 17 40 12 23
16 61 16 165 -1 129 1 138 30 202 16 37 28 69 24 72 -3 3 0 6 7 6 8 0 11 7 7
15 -3 8 -1 15 4 15 6 0 10 4 10 10 0 5 11 33 23 62 37 83 52 122 49 131 -1 4
3 7 9 7 6 0 9 7 5 15 -3 9 0 15 10 15 8 0 12 5 8 11 -3 6 3 24 14 39 12 15 19
38 17 49 -2 12 0 19 4 16 8 -4 21 27 20 49 -1 5 4 12 10 15 6 4 12 19 13 34 1
15 5 27 8 27 8 0 6 147 -2 155 -4 4 -4 13 -1 21 3 8 1 14 -5 14 -5 0 -9 12 -8
28 2 32 28 92 39 92 5 0 5 4 2 10 -3 6 -2 10 2 10 5 0 17 17 28 37 11 21 22
40 25 43 3 3 17 21 30 40 13 19 36 47 52 63 15 15 26 27 23 27 -5 0 18 29 42
55 7 7 9 15 6 19 -4 3 -1 6 6 6 7 0 9 5 5 12 -4 6 -3 8 3 5 6 -4 17 1 24 10
12 14 12 16 -1 8 -12 -7 -12 -5 1 11 9 10 19 27 22 37 4 9 11 17 17 17 6 0 9
4 6 9 -3 5 1 14 9 21 8 7 12 16 9 21 -3 5 0 9 7 9 7 0 9 3 6 7 -4 3 0 17 8 30
9 13 13 28 10 33 -3 6 -1 10 5 10 6 0 8 5 5 10 -3 6 -1 10 5 10 7 0 10 7 6 15
-3 8 -1 15 5 15 6 0 8 9 4 22 -6 15 -4 20 6 16 10 -4 14 3 14 26 -1 17 3 34 7
37 5 3 9 22 10 42 1 20 4 37 8 37 4 0 6 16 5 35 -1 19 3 35 9 35 6 0 4 5 -4
10 -8 5 -10 10 -5 10 13 0 17 164 5 214 -5 25 -4 36 4 36 7 0 7 3 1 8 -5 4
-10 16 -11 27 -1 21 -9 59 -25 115 -6 19 -11 45 -12 58 -1 12 -4 22 -8 22 -4
0 -12 20 -18 45 -6 25 -16 45 -22 45 -5 0 -8 4 -5 9 3 4 -1 17 -9 27 -8 10
-15 27 -15 37 0 9 -4 17 -9 17 -5 0 -15 15 -22 33 -7 17 -17 37 -21 42 -18 23
-57 85 -53 85 3 0 -24 28 -58 62 -34 35 -53 56 -42 48 19 -14 19 -14 6 3 -7 9
-18 17 -23 17 -6 0 -19 11 -30 25 -11 14 -24 22 -30 19 -6 -4 -8 -3 -5 3 3 5
-3 16 -15 24 -11 8 -27 20 -34 27 -8 7 -14 10 -14 6 0 -4 -8 3 -19 14 -10 12
-23 22 -30 22 -6 0 -11 5 -11 10 0 6 -7 10 -16 10 -8 0 -12 5 -9 10 4 6 3 9
-2 8 -12 -4 -73 26 -73 35 0 5 -4 6 -9 2 -5 -3 -12 -1 -16 5 -4 6 -11 8 -16 5
-5 -4 -9 -1 -9 4 0 6 -9 11 -20 11 -11 0 -20 5 -20 11 0 5 -4 8 -9 4 -5 -3
-13 0 -16 6 -4 5 -13 8 -21 5 -8 -3 -14 -1 -14 5 0 6 -4 7 -10 4 -5 -3 -10 -1
-10 5 0 7 -8 9 -20 5 -12 -4 -20 -2 -20 5 0 6 -4 8 -10 5 -5 -3 -10 -2 -10 3
0 5 -13 8 -30 7 -16 -1 -30 1 -30 5 0 4 -12 7 -27 8 -16 0 -31 1 -35 2 -5 1
-12 4 -18 5 -5 1 -13 4 -17 5 -17 6 -314 5 -326 -1z"/>
<path d="M1056 4308 c4 -6 2 -8 -4 -4 -6 3 -23 -5 -38 -19 -15 -14 -21 -25
-15 -25 7 0 9 -5 4 -12 -12 -21 -14 -48 -2 -48 5 0 7 -4 4 -10 -3 -5 -1 -10 5
-10 6 0 8 -4 5 -10 -3 -5 0 -10 8 -10 8 0 20 -7 27 -15 7 -8 16 -12 21 -9 5 3
9 0 9 -5 0 -6 7 -11 15 -11 8 0 15 -5 15 -11 0 -5 5 -7 10 -4 6 3 13 -1 16 -9
3 -9 10 -14 14 -11 4 3 13 -2 20 -10 7 -8 19 -15 26 -15 8 0 14 -5 14 -11 0
-5 5 -7 10 -4 6 3 10 1 10 -4 0 -6 3 -10 8 -9 4 1 17 -2 30 -6 14 -5 28 -3 37
4 8 6 18 9 24 6 5 -3 15 7 22 23 7 16 16 28 20 26 8 -6 5 37 -4 53 -5 6 -5 12
-1 12 4 0 -5 11 -20 25 -26 24 -40 30 -61 25 -5 -1 -7 2 -3 6 9 8 -32 40 -46
36 -4 -1 -13 4 -20 13 -6 8 -22 17 -36 20 -14 2 -32 13 -40 22 -17 20 -95 30
-84 11z"/>
<path d="M4072 4305 c-18 -8 -36 -15 -40 -15 -4 -1 -11 -8 -15 -16 -4 -8 -15
-14 -22 -14 -8 0 -15 -5 -15 -11 0 -5 -4 -8 -8 -5 -5 3 -18 -3 -28 -12 -10
-10 -21 -19 -24 -19 -24 -7 -39 -17 -35 -24 3 -4 -4 -6 -15 -4 -11 2 -18 0
-15 -6 4 -5 3 -9 -2 -9 -19 0 -31 -50 -21 -86 5 -20 12 -33 15 -30 3 3 12 -2
18 -11 13 -18 72 -27 81 -12 3 5 10 7 15 4 5 -4 9 -1 9 4 0 6 6 11 14 11 8 0
21 6 28 13 7 7 34 23 61 37 26 14 47 29 47 33 0 5 4 6 9 3 14 -9 74 52 77 79
1 14 -2 23 -7 20 -5 -4 -4 6 2 22 5 15 7 24 3 20 -4 -4 -14 2 -21 13 -8 11
-19 18 -24 15 -5 -4 -9 -2 -9 2 0 14 -43 13 -78 -2z"/>
<path d="M933 3448 c5 -13 1 -15 -21 -10 -48 12 -112 1 -112 -19 0 -6 -5 -7
-11 -4 -9 6 -24 -25 -19 -41 1 -4 -4 -11 -12 -15 -11 -7 -11 -9 1 -9 7 0 11
-6 8 -14 -8 -21 25 -54 71 -70 37 -13 40 -13 35 1 -5 12 -3 14 8 7 17 -11 229
-13 229 -2 0 5 5 8 11 8 18 0 50 42 45 57 -3 7 0 13 7 13 8 0 8 3 2 8 -6 4
-10 14 -10 22 1 20 -46 61 -62 55 -7 -2 -13 -1 -13 3 0 4 -9 8 -20 8 -11 0
-20 -4 -20 -9 0 -4 -5 -5 -12 -1 -7 4 -28 8 -48 9 -19 0 -41 4 -49 9 -11 7
-13 5 -8 -6z"/>
<path d="M4230 3447 c0 -12 -4 -15 -12 -11 -15 10 -84 10 -122 0 -40 -10 -58
-31 -63 -74 -3 -29 2 -43 21 -66 23 -26 32 -29 94 -30 37 -2 74 -6 82 -11 8
-5 11 -4 7 2 -7 12 87 12 99 1 3 -4 17 0 30 8 12 9 27 15 31 13 4 -1 15 11 23
27 8 16 20 32 25 36 6 5 6 8 -2 8 -6 0 -9 9 -6 20 3 11 0 20 -6 20 -6 0 -11 6
-11 13 0 8 -10 19 -22 25 -30 15 -108 22 -108 9 0 -5 -6 -5 -13 2 -8 6 -17 8
-21 4 -4 -4 -11 -1 -16 7 -8 13 -10 12 -10 -3z"/>
</g>
</svg>
