<?xml version="1.0" encoding="utf-8"?>
<!-- Generator: Adobe Illustrator 18.0.0, SVG Export Plug-In . SVG Version: 6.00 Build 0)  -->
<!DOCTYPE svg PUBLIC "-//W3C//DTD SVG 1.1//EN" "http://www.w3.org/Graphics/SVG/1.1/DTD/svg11.dtd">
<svg version="1.1" id="Layer_1" xmlns="http://www.w3.org/2000/svg" xmlns:xlink="http://www.w3.org/1999/xlink" x="0px" y="0px"
	 viewBox="0 0 800 600" enable-background="new 0 0 800 600" xml:space="preserve">
<g>
	<path fill="#39B54A" d="M369,256.5c-8.4,2.4-16.7,4.2-25.4,3.8c-5.9-0.2-11.5-1.5-16.8-4.3c-4.7-2.5-8.4-6-10.9-10.7
		c-2.8-5.3-5.6-10.6-8.6-15.7c-1.6-2.8-3.5-6.1-7.2-5.8c-3.7,0.3-5.3,3.9-6.8,7c-2.4,5-1.9,9.9,1.2,13.1c2,2.1,4.6,3.4,7.4,2.5
		c1.5-0.4,3.4-2.1,3.5-3.3c0.1-1.5-1.1-3.5-2.3-4.8c-1.4-1.5-2.9-0.5-4.2,0.8c-0.4,0.4-1.1,0.5-1.7,0.8c-2.4-2.1-1.5-4.1,0-6
		c1.9-2.3,5.1-3.2,7.3-1.9c1.1,0.6,2,1.6,2.8,2.6c2.6,3.5,3.6,7.6,3.8,11.8c0.2,5.2-2.8,8-8.1,8.2c-13.1,0.3-24.1-13.3-21.5-26.5
		c0.2-1,0.4-1.9,0.7-2.8c4.3-15,19.8-19.7,31.7-9.6c1.9,1.7,3.9,3.6,5.2,5.7c6.5,10.9,16.8,15.6,28.5,18.4
		c6.3,1.5,12.5,1.3,18.6-0.9c5.2-1.9,9.3-5,12.6-9.4c2.9-3.9,3.6-8.2,1.4-12.3c-2.7-5.1-5.9-10-9.5-14.5c-7.1-8.9-11.3-19-11.3-30.3
		c0-12.1,5.3-21.6,16.1-27.4c12.5-6.7,25.7-8.1,39.4-3.9c5.5,1.7,9.7,5,13,9.6c11.3,16.1,11.8,40-1.2,55.2c-0.4,0.4-0.6,1-1,1.7
		c3.2-0.3,6.1-0.6,8.9-0.7c8-0.4,13.3,3.7,16.4,10.6c5.2,11.8,4.2,23.3-2.7,34.3c-1.6,2.5-3.4,4.7-5,7.1c-3.2,4.9-1.1,9.1,4.7,9.2
		c2.2,0,4.5-0.6,6.5-1.5c5.9-2.3,11.5-5.2,17.5-7.2c5.2-1.8,10.6-3.3,16-3.8c8.5-0.8,13.8,3.6,15.5,12c2.6,12.3-5.8,25.2-18,27.6
		c-4.1,0.8-7.8,0-10.5-3.4c-2.3-2.9-2.9-6.2-1.3-9.5c0.5-1,1.7-1.7,2.5-2.6c0.7,1,1.5,1.9,1.9,3c0.5,1.2,0.5,2.6,1.1,3.7
		c1.3,2.7,3.6,3.8,6.5,2.9c4.7-1.5,8.3-4.5,9.6-9.4c1.3-4.8-0.5-8.9-3.8-12.4c-2.4-2.5-5.6-3.8-8.8-2.1c-4,2-8,4.3-11.4,7.1
		c-4.1,3.4-7.7,7.4-11.4,11.2c-0.5,0.5-0.9,0.9-1.4,1.4c-6.2,5.2-12.5,10.2-21.3,7.6c-9.5-2.8-16.5-8.8-20-18.3
		c-1.8-4.7-1.5-9.6,0.4-14.2c1.9-4.6,4.3-9.1,6-13.8c0.7-1.9,1.3-4.7,0.5-6.3c-1.4-2.6-4.6-1.8-7.1-1.3c-6.4,1.3-11.7,4.6-16.6,8.6
		c-6.9,5.7-13.3,11.9-17.5,20c-3.7,7.1-2.9,10.9,3.3,16.1c0.4,0.3,0.7,0.7,1.1,0.9c7.3,3.8,8.3,10.7,5.3,18.5
		c-5.7,14.9-14.6,21-34.7,19.7c-1.4-0.1-2.9-0.4-4.3-0.8c-10.9-2.4-16.7-9.3-17.3-20.4c-0.3-4.9,0.1-9.8,2.2-14.2
		c1-2.1,2.5-4.2,4.1-5.9c0.9-1,2.4-1.8,3.7-2.1c4.6-1,7.2,2.1,9.6,5.2c2.4,3,3,6.4,1.3,10c-0.9,1.9-2.5,2.9-5.1,1.8
		c0.4-1.6,1.1-3.1,1.1-4.6c0-1.1-0.6-2.8-1.4-3.1c-0.7-0.3-2.5,0.4-3.1,1.2c-5.7,7.5-2.2,19,6.6,22c3.9,1.3,7.8,1.9,11.9,0.9
		c8.5-2.2,11.6-10.7,6.5-17.8c-0.7-1-1.6-2-2.7-2.8c-10.5-7.8-11.1-23.1-3.8-32.6C367.9,258.1,368.4,257.3,369,256.5z M401.4,203.8
		c7.1,4,13.3,3.1,18.2-2.5c4.8-5.6,5-13.3,0.4-17.5c-4.6-4.2-12.3-3.2-17.3,2.3c-1.2,1.3-2.2,2.7-3.2,4c-2.8-1.7-5.3-3.6-8-4.7
		c-4.7-1.9-9.2-0.7-12.3,2.9c-3.3,3.8-3.2,8-1.2,12.2C382.6,210.2,393.3,211.7,401.4,203.8z"/>
	<path fill="#39B54A" d="M456.6,241.9c2.1-8.4,0.8-16.1-1.4-24.2c4.8,1.1,9.1,2.2,13.5,3.1c5.5,1.1,11,0.5,16.1-1.8
		c5.4-2.4,8.8-6.5,9.3-12.6c0.5-6.2-2.7-10.5-7.8-13.5c-4.1-2.4-8.5-3.8-13.4-2.5c-4.8,1.2-7.3,4.6-8.6,9c-0.9,3.2,0.6,6.3,3.3,7.9
		c4.2,2.4,7.6,0.6,7.9-4.2c0-0.6,0.2-1.2,0.3-2c3.5,0.2,4.2,2.8,4.7,5.3c0.5,2.9-0.8,5-3.4,6.3c-6.8,3.4-20.8-1.4-21.3-11.9
		c-0.5-11.7,6.6-19.7,19.3-20.1c10.4-0.3,20.2,2.4,26.2,11.8c6.4,10.2,7.6,21.2,2.2,32.4c-3.1,6.5-8.7,10.7-15.6,12.1
		C477.8,239,467.6,240.2,456.6,241.9z"/>
	<path fill="#39B54A" d="M377.3,220.6c1.4,2.5,0.5,4.5-0.8,6.5c-5.1,7.9-13,10.8-22.2,8.4c-19.8-5.3-33.1-20.1-35.7-39.6
		c-0.7-5.5,0.3-10.7,2.8-15.5c4.8-9.4,18.1-13.2,27.3-7.9c4.4,2.5,6.5,6.7,5.7,11.4c-0.6,3.6-2.7,5.3-6.8,5.2c0-0.6-0.2-1.2-0.1-1.8
		c1.3-4.7,0.7-6.2-3-7.7c-4.1-1.7-7.5-0.5-9.6,3.1c-2.9,5.2-2.1,13.7,2.2,18.1c2.8,2.9,6,5.5,9.3,7.7c8.2,5.3,17,9.2,26.7,11.1
		C374.6,219.8,376,220.2,377.3,220.6z"/>
	<path fill="#39B54A" d="M390.6,262c8.1-11.9,22.3-21.1,30.9-19.8c-0.8,2-1.5,3.9-2.3,5.8c-1.5,3.6-3.2,7.1-4.8,10.6
		c-2.3,5.1-2.6,10.4-0.8,15.6c0.9,2.6,0.5,4.4-1.2,6.5c-3.5,4.2-3.4,7.3,0,11.7c3.4,4.5,8.1,6.8,13.4,8.2c2.2,0.6,4.4,0.8,6.6,1.3
		c5.7,1.4,8.8,5.7,7.7,11.5c-1.8,9.5-7.7,15.7-16.4,19.5c-0.4,0.2-0.9-0.1-2.3-0.3c0.9-1.4,1.6-2.5,2.3-3.5c2.1-3,4.7-5.8,6.3-9.1
		c2.9-6,0.3-10.1-6.2-11c-3-0.4-6.1-0.5-9.1-1.2c-13.2-3.1-20-15.7-15.5-28.4c0.3-0.8,0.7-1.5,0.9-2.2c3-7.8,1-11.9-6.9-14.3
		C392.4,262.9,391.7,262.5,390.6,262z"/>
	<path d="M403.6,195.8c1.3,0,2.4,0,3.7,0c0-1.4,0-2.6,0-4.5c1.7,0.3,3.2,0.4,4.5,1c2.2,1.1,3.2,3.9,2.5,6.2
		c-0.9,2.7-3.5,4.3-6.4,3.8C405,201.8,404,200.3,403.6,195.8z"/>
	<path d="M390.3,195.3c5.1-0.1,7.3,1.5,7.5,4.8c0.1,2.9-2.4,5.7-5.3,5.9c-2.9,0.1-4.9-2-5.5-6.3
		C389.8,199.8,392.2,199.2,390.3,195.3z"/>
</g>
<text transform="matrix(1 0 0 1 223.8633 398.8926)" font-family="'HemiHeadRg-BoldItalic'" font-size="72.089">OctoFarm</text>
</svg>
